HIERARCHY
ROOT Hips
{
	OFFSET -372.277008 88.828384 569.627502
	CHANNELS 6 Xposition Yposition Zposition Zrotation Yrotation Xrotation
	JOINT Spine
	{
		OFFSET 0.000000 8.814247 -2.080078
		CHANNELS 3 Zrotation Yrotation Xrotation
		JOINT Spine1
		{
			OFFSET 0.000000 8.844139 0.000000
			CHANNELS 3 Zrotation Yrotation Xrotation
			JOINT Spine2
			{
				OFFSET 0.000000 11.682266 0.000000
				CHANNELS 3 Zrotation Yrotation Xrotation
				JOINT Spine3
				{
					OFFSET 0.000000 11.746704 0.000000
					CHANNELS 3 Zrotation Yrotation Xrotation
					JOINT Neck
					{
						OFFSET 0.000000 17.658264 0.000000
						CHANNELS 3 Zrotation Yrotation Xrotation
						JOINT Neck1
						{
							OFFSET 0.000000 5.101517 0.000000
							CHANNELS 3 Zrotation Yrotation Xrotation
							JOINT Head
							{
								OFFSET 0.000000 5.101517 0.000000
								CHANNELS 3 Zrotation Yrotation Xrotation
								JOINT HeadEnd
								{
									OFFSET 0.000000 11.655090 0.000000
									CHANNELS 3 Zrotation Yrotation Xrotation
									End Site
									{
										OFFSET 0.000000 0.100006 0.000000
									}
								}
							}
						}
					}
					JOINT RightShoulder
					{
						OFFSET -2.625397 11.175217 0.000000
						CHANNELS 3 Zrotation Yrotation Xrotation
						JOINT RightArm
						{
							OFFSET 0.000000 10.434708 0.000000
							CHANNELS 3 Zrotation Yrotation Xrotation
							JOINT RightForeArm
							{
								OFFSET 0.000000 29.628418 0.000000
								CHANNELS 3 Zrotation Yrotation Xrotation
								JOINT RightHand
								{
									OFFSET 0.000000 22.857605 0.000061
									CHANNELS 3 Zrotation Yrotation Xrotation
									JOINT RightHandThumb1
									{
										OFFSET -2.867310 3.959564 2.944275
										CHANNELS 3 Zrotation Yrotation Xrotation
										JOINT RightHandThumb2
										{
											OFFSET 0.000000 3.350403 0.000000
											CHANNELS 3 Zrotation Yrotation Xrotation
											JOINT RightHandThumb3
											{
												OFFSET 0.000000 3.756516 0.000000
												CHANNELS 3 Zrotation Yrotation Xrotation
												JOINT RightHandThumb4
												{
													OFFSET 0.000000 3.147339 0.000000
													CHANNELS 3 Zrotation Yrotation Xrotation
													End Site
													{
														OFFSET 0.000000 0.100006 0.000000
													}
												}
											}
										}
									}
									JOINT RightHandIndex1
									{
										OFFSET -0.086761 10.030899 2.345276
										CHANNELS 3 Zrotation Yrotation Xrotation
										JOINT RightHandIndex2
										{
											OFFSET 0.000000 4.061096 0.000000
											CHANNELS 3 Zrotation Yrotation Xrotation
											JOINT RightHandIndex3
											{
												OFFSET 0.000000 3.248871 0.000000
												CHANNELS 3 Zrotation Yrotation Xrotation
												JOINT RightHandIndex4
												{
													OFFSET 0.000000 2.639709 0.000000
													CHANNELS 3 Zrotation Yrotation Xrotation
													End Site
													{
														OFFSET 0.000000 0.100006 0.000000
													}
												}
											}
										}
									}
									JOINT RightHandMiddle1
									{
										OFFSET 0.104095 9.502945 0.006775
										CHANNELS 3 Zrotation Yrotation Xrotation
										JOINT RightHandMiddle2
										{
											OFFSET 0.000000 4.568726 0.000000
											CHANNELS 3 Zrotation Yrotation Xrotation
											JOINT RightHandMiddle3
											{
												OFFSET 0.000000 3.654984 0.000000
												CHANNELS 3 Zrotation Yrotation Xrotation
												JOINT RightHandMiddle4
												{
													OFFSET 0.000000 2.741241 0.000000
													CHANNELS 3 Zrotation Yrotation Xrotation
													End Site
													{
														OFFSET 0.000000 0.100006 0.000000
													}
												}
											}
										}
									}
									JOINT RightHandRing1
									{
										OFFSET 0.086761 8.921707 -2.267456
										CHANNELS 3 Zrotation Yrotation Xrotation
										JOINT RightHandRing2
										{
											OFFSET 0.000000 4.061096 0.000000
											CHANNELS 3 Zrotation Yrotation Xrotation
											JOINT RightHandRing3
											{
												OFFSET 0.000000 3.654984 0.000000
												CHANNELS 3 Zrotation Yrotation Xrotation
												JOINT RightHandRing4
												{
													OFFSET 0.000000 2.741241 0.000000
													CHANNELS 3 Zrotation Yrotation Xrotation
													End Site
													{
														OFFSET 0.000000 0.100006 0.000000
													}
												}
											}
										}
									}
									JOINT RightHandPinky1
									{
										OFFSET -0.173492 7.976990 -4.467224
										CHANNELS 3 Zrotation Yrotation Xrotation
										JOINT RightHandPinky2
										{
											OFFSET 0.000000 3.350403 0.000000
											CHANNELS 3 Zrotation Yrotation Xrotation
											JOINT RightHandPinky3
											{
												OFFSET 0.000000 2.842758 0.000000
												CHANNELS 3 Zrotation Yrotation Xrotation
												JOINT RightHandPinky4
												{
													OFFSET 0.000000 2.639709 0.000000
													CHANNELS 3 Zrotation Yrotation Xrotation
													End Site
													{
														OFFSET 0.000000 0.100006 0.000000
													}
												}
											}
										}
									}
									JOINT RightForeArmEnd
									{
										OFFSET 0.000000 0.000000 0.000000
										CHANNELS 3 Zrotation Yrotation Xrotation
										End Site
										{
											OFFSET 0.000000 0.100006 0.000000
										}
									}
								}
								JOINT RightArmEnd
								{
									OFFSET 0.000000 0.000000 0.000000
									CHANNELS 3 Zrotation Yrotation Xrotation
									End Site
									{
										OFFSET 0.000000 0.100006 0.000000
									}
								}
							}
						}
					}
					JOINT LeftShoulder
					{
						OFFSET 2.625397 11.175217 0.000000
						CHANNELS 3 Zrotation Yrotation Xrotation
						JOINT LeftArm
						{
							OFFSET 0.000000 10.813629 0.000000
							CHANNELS 3 Zrotation Yrotation Xrotation
							JOINT LeftForeArm
							{
								OFFSET 0.000000 28.724777 0.000000
								CHANNELS 3 Zrotation Yrotation Xrotation
								JOINT LeftHand
								{
									OFFSET 0.644379 25.716171 -0.328796
									CHANNELS 3 Zrotation Yrotation Xrotation
									JOINT LeftHandThumb1
									{
										OFFSET 2.867310 3.959564 2.944275
										CHANNELS 3 Zrotation Yrotation Xrotation
										JOINT LeftHandThumb2
										{
											OFFSET 0.000000 3.350403 0.000000
											CHANNELS 3 Zrotation Yrotation Xrotation
											JOINT LeftHandThumb3
											{
												OFFSET 0.000000 3.756516 0.000000
												CHANNELS 3 Zrotation Yrotation Xrotation
												JOINT LeftHandThumb4
												{
													OFFSET 0.000000 3.100006 0.000000
													CHANNELS 3 Zrotation Yrotation Xrotation
													End Site
													{
														OFFSET 0.000000 0.100006 0.000000
													}
												}
											}
										}
									}
									JOINT LeftHandIndex1
									{
										OFFSET 0.086761 10.030899 2.345276
										CHANNELS 3 Zrotation Yrotation Xrotation
										JOINT LeftHandIndex2
										{
											OFFSET 0.000000 4.061096 0.000000
											CHANNELS 3 Zrotation Yrotation Xrotation
											JOINT LeftHandIndex3
											{
												OFFSET 0.000000 3.248871 0.000000
												CHANNELS 3 Zrotation Yrotation Xrotation
												JOINT LeftHandIndex4
												{
													OFFSET 0.000000 2.639709 0.000000
													CHANNELS 3 Zrotation Yrotation Xrotation
													End Site
													{
														OFFSET 0.000000 0.100006 0.000000
													}
												}
											}
										}
									}
									JOINT LeftHandMiddle1
									{
										OFFSET -0.104095 9.502945 0.006775
										CHANNELS 3 Zrotation Yrotation Xrotation
										JOINT LeftHandMiddle2
										{
											OFFSET 0.000000 4.568726 0.000000
											CHANNELS 3 Zrotation Yrotation Xrotation
											JOINT LeftHandMiddle3
											{
												OFFSET 0.000000 3.654984 0.000000
												CHANNELS 3 Zrotation Yrotation Xrotation
												JOINT LeftHandMiddle4
												{
													OFFSET 0.000000 2.741241 0.000000
													CHANNELS 3 Zrotation Yrotation Xrotation
													End Site
													{
														OFFSET 0.000000 0.100006 0.000000
													}
												}
											}
										}
									}
									JOINT LeftHandRing1
									{
										OFFSET -0.086761 8.921707 -2.267456
										CHANNELS 3 Zrotation Yrotation Xrotation
										JOINT LeftHandRing2
										{
											OFFSET 0.000000 4.061096 0.000000
											CHANNELS 3 Zrotation Yrotation Xrotation
											JOINT LeftHandRing3
											{
												OFFSET 0.000000 3.654984 0.000000
												CHANNELS 3 Zrotation Yrotation Xrotation
												JOINT LeftHandRing4
												{
													OFFSET 0.000000 2.741241 0.000000
													CHANNELS 3 Zrotation Yrotation Xrotation
													End Site
													{
														OFFSET 0.000000 0.100006 0.000000
													}
												}
											}
										}
									}
									JOINT LeftHandPinky1
									{
										OFFSET 0.173492 7.976990 -4.467224
										CHANNELS 3 Zrotation Yrotation Xrotation
										JOINT LeftHandPinky2
										{
											OFFSET 0.000000 3.350403 0.000000
											CHANNELS 3 Zrotation Yrotation Xrotation
											JOINT LeftHandPinky3
											{
												OFFSET 0.000000 2.842758 0.000000
												CHANNELS 3 Zrotation Yrotation Xrotation
												JOINT LeftHandPinky4
												{
													OFFSET 0.000000 2.639709 0.000000
													CHANNELS 3 Zrotation Yrotation Xrotation
													End Site
													{
														OFFSET 0.000000 0.100006 0.000000
													}
												}
											}
										}
									}
									JOINT LeftForeArmEnd
									{
										OFFSET 0.000000 0.000000 0.000000
										CHANNELS 3 Zrotation Yrotation Xrotation
										End Site
										{
											OFFSET 0.000000 0.100006 0.000000
										}
									}
								}
								JOINT LeftArmEnd
								{
									OFFSET 0.000000 0.000000 0.000000
									CHANNELS 3 Zrotation Yrotation Xrotation
									End Site
									{
										OFFSET 0.000000 0.100006 0.000000
									}
								}
							}
						}
					}
				}
			}
		}
	}
	JOINT RightUpLeg
	{
		OFFSET -11.289948 0.000000 0.000000
		CHANNELS 3 Zrotation Yrotation Xrotation
		JOINT RightLeg
		{
			OFFSET 0.000000 -38.200325 0.000000
			CHANNELS 3 Zrotation Yrotation Xrotation
			JOINT RightFoot
			{
				OFFSET 0.000000 -39.900856 0.000000
				CHANNELS 3 Zrotation Yrotation Xrotation
				JOINT RightToeBase
				{
					OFFSET 0.000000 -0.000003 15.261658
					CHANNELS 3 Zrotation Yrotation Xrotation
					JOINT RightToeBaseEnd
					{
						OFFSET 0.000000 -0.000001 7.370728
						CHANNELS 3 Zrotation Yrotation Xrotation
						End Site
						{
							OFFSET 0.000000 0.100000 0.000000
						}
					}
				}
				JOINT RightLegEnd
				{
					OFFSET 0.000000 0.000000 0.000000
					CHANNELS 3 Zrotation Yrotation Xrotation
					End Site
					{
						OFFSET 0.000000 0.100000 0.000000
					}
				}
			}
			JOINT RightUpLegEnd
			{
				OFFSET 0.000000 0.000000 0.000000
				CHANNELS 3 Zrotation Yrotation Xrotation
				End Site
				{
					OFFSET 0.000000 0.099998 0.000000
				}
			}
		}
	}
	JOINT LeftUpLeg
	{
		OFFSET 11.315674 0.000000 0.000000
		CHANNELS 3 Zrotation Yrotation Xrotation
		JOINT LeftLeg
		{
			OFFSET 0.000000 -38.200325 0.000000
			CHANNELS 3 Zrotation Yrotation Xrotation
			JOINT LeftFoot
			{
				OFFSET 0.000000 -39.900856 0.000000
				CHANNELS 3 Zrotation Yrotation Xrotation
				JOINT LeftToeBase
				{
					OFFSET 0.000000 -0.000003 15.261658
					CHANNELS 3 Zrotation Yrotation Xrotation
					JOINT LeftToeBaseEnd
					{
						OFFSET 0.000000 -0.000001 7.539978
						CHANNELS 3 Zrotation Yrotation Xrotation
						End Site
						{
							OFFSET 0.000000 0.100000 0.000000
						}
					}
				}
				JOINT LeftLegEnd
				{
					OFFSET 0.000000 0.000000 0.000000
					CHANNELS 3 Zrotation Yrotation Xrotation
					End Site
					{
						OFFSET 0.000000 0.100000 0.000000
					}
				}
			}
			JOINT LeftUpLegEnd
			{
				OFFSET 0.000000 0.000000 0.000000
				CHANNELS 3 Zrotation Yrotation Xrotation
				End Site
				{
					OFFSET 0.000000 0.099998 0.000000
				}
			}
		}
	}
}
MOTION
Frames: 4
Frame Time: 0.041667
-378.915863 85.266129 560.525024 -7.268528 -14.808268 -20.278263 5.407108 -1.325286 8.775174 1.386007 -0.323834 2.075102 1.729032 -1.486870 13.320811 0.879017 0.341752 5.553677 -1.274577 3.439094 5.842609 -0.430020 4.315249 -2.746094 -3.295487 -1.555807 -16.811881 -0.000000 0.000000 -0.000000 91.829079 -0.405831 13.450049 54.532391 -43.570832 11.041111 -0.016119 13.505373 22.935191 8.479423 17.271651 -5.860858 10.637685 -1.840807 39.870994 -0.000010 -0.000001 -25.920004 -0.000008 -0.000001 -18.000007 -0.000000 0.000001 0.000000 13.214514 -0.000002 -9.735067 9.250162 -0.000002 -0.000004 9.250162 -0.000001 -0.000004 -0.000001 -0.000001 -0.000001 12.384953 -0.000001 -10.464269 8.669472 0.000002 -0.000003 8.669471 -0.000000 -0.000004 0.000001 -0.000000 0.000000 14.424753 -0.000002 -8.796372 10.097327 0.000002 -0.000003 10.097327 0.000002 -0.000003 -0.000001 0.000001 -0.000000 15.786075 -0.000004 -9.108188 11.050251 0.000000 -0.000004 11.050252 -0.000001 -0.000003 0.000003 -0.000000 0.000000 0.000000 -0.000002 0.000001 -0.000000 0.000003 0.000000 -91.659096 0.344560 11.148733 -59.849218 37.975657 10.845740 -0.372758 -6.179894 38.397309 -2.589441 -13.454671 -10.920432 -9.441432 1.728225 40.406593 0.000006 -0.000001 -23.040007 0.000003 -0.000002 -16.000002 0.000000 0.000001 0.000000 -7.985276 0.000001 -3.844534 -5.589694 0.000002 -0.000001 -5.589692 0.000000 -0.000001 0.000002 -0.000003 -0.000000 -5.258210 0.000002 -9.028639 -3.680747 -0.000002 -0.000001 -3.680747 0.000002 -0.000001 0.000000 -0.000001 0.000000 -1.403313 -0.000002 -14.730140 -0.982321 -0.000001 -0.000001 -0.982321 0.000000 -0.000000 0.000000 -0.000002 -0.000000 3.761722 0.000003 -20.409669 -0.000001 -0.000001 -0.000001 -0.000001 -0.000001 -0.000001 -0.000001 -0.000001 -0.000001 -0.000001 0.000000 -0.000002 -0.000002 -0.000002 0.000000 9.626063 -13.694983 21.877099 -0.134538 -0.550017 13.468058 -10.507127 -15.607793 9.521868 0.322216 0.658733 -14.488752 0.000000 0.000003 0.000000 -0.000002 0.000003 0.000001 0.000001 0.000000 -0.000000 21.835281 9.416474 -2.139787 0.279016 0.515395 28.566655 -7.579228 27.661161 22.871394 3.175640 0.665282 -19.119270 0.000000 0.000002 0.000001 -0.000001 0.000000 0.000001 -0.000000 -0.000000 0.000000 
-378.899963 85.260056 560.517090 -7.305329 -14.840389 -20.229606 5.385690 -1.334755 8.784805 1.366753 -0.348499 2.076471 1.711647 -1.578401 13.315746 0.864680 0.278674 5.525452 -1.016269 3.180969 5.725681 -0.463477 4.124537 -2.825605 -3.224165 -1.516429 -16.749938 0.000000 -0.000000 0.000000 91.897094 -0.422557 13.455897 54.318736 -43.719447 11.229170 -0.047992 13.453379 22.943968 8.500516 17.400660 -5.838953 10.637685 -1.840804 39.870994 -0.000009 -0.000002 -25.920004 -0.000008 -0.000000 -18.000007 0.000000 -0.000001 0.000000 13.117137 0.000001 -9.664090 9.181994 0.000002 -0.000003 9.181998 -0.000000 -0.000004 0.000000 -0.000000 -0.000000 12.301700 0.000001 -10.415122 8.611191 -0.000000 -0.000002 8.611189 0.000003 -0.000002 -0.000002 -0.000002 -0.000001 14.366985 0.000001 -8.781438 10.056888 -0.000000 -0.000004 10.056888 -0.000002 -0.000004 0.000001 0.000001 0.000000 15.757195 0.000003 -9.136076 11.030036 0.000001 -0.000004 11.030037 0.000000 -0.000003 0.000000 -0.000001 -0.000000 -0.000000 0.000001 -0.000000 -0.000001 0.000004 0.000001 -91.544978 0.325260 11.271953 -60.623427 39.162249 10.486061 -0.364215 -6.255121 37.190838 0.345440 -15.106941 -11.498920 -9.740291 1.758443 40.271711 0.000007 0.000001 -23.760003 0.000002 -0.000002 -16.500006 0.000001 -0.000001 0.000000 -9.224200 -0.000000 2.753976 -6.456939 -0.000004 -0.000006 -6.456937 -0.000004 -0.000001 0.000000 -0.000004 0.000001 -6.082953 0.000001 -4.242689 -4.258067 -0.000003 -0.000003 -4.258068 -0.000001 -0.000001 0.000000 -0.000001 -0.000000 -1.596004 0.000002 -11.690881 -1.117202 0.000002 -0.000001 -1.117204 -0.000000 -0.000000 -0.000000 -0.000002 -0.000000 4.002531 0.000002 -19.212803 -0.000000 -0.000001 -0.000001 0.000001 -0.000003 -0.000001 0.000001 -0.000003 -0.000001 -0.000001 -0.000001 0.000000 0.000003 -0.000000 -0.000001 9.663123 -13.683084 21.807054 -0.135255 -0.550401 13.510538 -10.499245 -15.592550 9.521306 0.329927 0.664182 -14.479528 -0.000000 0.000002 0.000002 -0.000001 0.000001 -0.000001 0.000000 0.000002 -0.000000 21.870824 9.467682 -2.208342 0.278103 0.512440 28.637868 -7.578905 27.637756 22.824462 3.167897 0.669308 -19.111737 0.000000 0.000001 -0.000000 0.000001 0.000001 0.000002 -0.000001 -0.000000 -0.000000 
-378.892151 85.250069 560.498352 -7.365781 -14.877100 -20.123797 5.374959 -1.329228 8.770158 1.374090 -0.366236 2.054354 1.711970 -1.654593 13.304115 0.845676 0.235214 5.498803 -0.826733 2.905571 5.609195 -0.508551 3.874290 -2.900315 -3.147008 -1.495482 -16.702304 -0.000000 -0.000001 0.000000 91.943717 -0.434227 13.463308 54.178307 -43.880837 11.338053 -0.063304 13.478945 22.953255 8.475506 17.445314 -5.781391 10.637684 -1.840801 39.870990 -0.000010 -0.000003 -25.920010 -0.000009 -0.000000 -18.000007 0.000000 -0.000002 -0.000000 13.004511 0.000003 -9.611644 9.103162 -0.000000 -0.000003 9.103168 -0.000001 -0.000004 -0.000002 0.000001 0.000000 12.211571 0.000003 -10.362735 8.548100 -0.000000 -0.000003 8.548102 -0.000000 -0.000003 -0.000001 0.000000 0.000000 14.320112 0.000002 -8.737290 10.024078 0.000001 -0.000004 10.024082 -0.000001 -0.000004 -0.000000 -0.000003 -0.000001 15.748774 0.000002 -9.116479 11.024142 -0.000001 -0.000004 11.024140 -0.000001 -0.000005 -0.000000 0.000000 0.000001 0.000000 0.000002 0.000000 0.000000 -0.000001 -0.000002 -91.381470 0.293965 11.334224 -61.709257 39.955111 9.802350 -0.326371 -8.031330 36.964987 3.489720 -18.291470 -10.749553 -10.039288 1.787272 40.137473 0.000007 -0.000002 -24.480004 0.000004 0.000001 -17.000003 0.000001 -0.000002 0.000000 -10.629537 -0.000000 2.249728 -7.440673 0.000000 -0.000003 -7.440676 0.000002 -0.000001 0.000002 -0.000002 0.000002 -6.708056 -0.000000 -3.677679 -4.695639 -0.000000 -0.000001 -4.695639 0.000002 -0.000003 0.000000 -0.000003 -0.000001 -0.472225 -0.000004 -9.319268 -0.330561 0.000003 -0.000001 -0.330560 -0.000000 -0.000001 -0.000000 0.000001 -0.000000 6.521449 0.000003 -14.605245 -0.000001 -0.000003 -0.000002 0.000001 0.000002 0.000001 0.000001 0.000002 0.000001 0.000000 0.000000 -0.000002 0.000001 -0.000001 -0.000001 9.747010 -13.661847 21.682372 -0.135947 -0.550788 13.541269 -10.500449 -15.585506 9.520407 0.338474 0.668772 -14.477959 0.000000 0.000001 0.000001 -0.000000 0.000001 0.000000 0.000000 0.000001 -0.000000 21.930004 9.542190 -2.347983 0.277522 0.510827 28.736522 -7.580990 27.605188 22.776120 3.160229 0.669848 -19.103450 0.000000 0.000003 0.000000 -0.000001 0.000000 0.000002 -0.000000 -0.000000 -0.000000 
-378.888062 85.244370 560.479004 -7.407157 -14.924517 -20.051125 5.360528 -1.314683 8.758761 1.368177 -0.372391 2.055725 1.737803 -1.701255 13.307341 0.825386 0.211680 5.475054 -0.704251 2.618537 5.486274 -0.558054 3.582039 -2.971433 -3.068033 -1.482763 -16.667581 -0.000000 0.000001 -0.000000 91.976700 -0.443089 13.483097 54.142172 -43.912768 11.320337 -0.064021 13.539644 23.039125 8.450229 17.419851 -5.811109 10.637686 -1.840802 39.870990 -0.000010 -0.000002 -25.920008 -0.000007 0.000000 -18.000006 0.000000 0.000002 -0.000000 12.877823 0.000002 -9.554644 9.014476 0.000002 -0.000003 9.014478 0.000003 -0.000004 0.000001 0.000001 0.000000 12.097363 -0.000001 -10.307929 8.468154 0.000002 -0.000003 8.468156 -0.000001 -0.000003 0.000001 0.000000 -0.000000 14.227531 0.000002 -8.667117 9.959272 0.000005 -0.000003 9.959273 -0.000002 -0.000005 -0.000000 -0.000000 -0.000000 15.681090 0.000000 -9.037397 10.976764 -0.000002 -0.000003 10.976763 -0.000001 -0.000004 0.000001 0.000001 -0.000000 -0.000000 -0.000001 -0.000000 0.000002 -0.000002 0.000002 -91.256300 0.269023 11.352130 -62.926608 39.504848 8.851054 -0.303885 -9.377759 37.464824 4.647285 -19.312580 -10.408916 -9.740287 1.758444 40.271707 0.000005 -0.000001 -23.760007 0.000004 0.000003 -16.500002 -0.000001 0.000003 0.000003 -8.962176 0.000003 -1.660489 -6.273524 0.000002 -0.000002 -6.273522 0.000002 -0.000003 -0.000001 0.000002 -0.000000 -5.490933 0.000000 -6.123961 -3.843654 0.000002 -0.000002 -3.843652 -0.000001 -0.000000 -0.000000 0.000000 -0.000000 0.036343 0.000001 -10.471806 -0.000001 0.000001 -0.000001 -0.000001 0.000000 -0.000000 -0.000001 0.000000 -0.000000 6.268600 0.000002 -14.529537 -0.000001 0.000003 -0.000000 -0.000001 -0.000000 0.000000 -0.000001 -0.000000 -0.000000 0.000002 0.000002 -0.000003 -0.000000 0.000002 -0.000000 9.813413 -13.628545 21.593501 -0.136606 -0.551177 13.560966 -10.507372 -15.578251 9.533517 0.346612 0.672993 -14.472023 0.000000 0.000003 0.000001 -0.000002 0.000001 -0.000002 0.000001 -0.000000 -0.000001 21.980761 9.613665 -2.433545 0.276953 0.509742 28.796685 -7.572503 27.581641 22.753891 3.157227 0.670427 -19.096574 0.000000 0.000002 0.000000 -0.000000 0.000002 0.000001 0.000000 -0.000000 0.000000 
